<svg id="Capa_1" data-name="Capa 1" xmlns="http://www.w3.org/2000/svg" viewBox="0 0 1200 200"><defs><style>.cls-1{fill:#fff;stroke:#000;stroke-miterlimit:10;}.cls-2,.cls-3,.cls-4,.cls-5{fill:#216016;isolation:isolate;}.cls-2{opacity:0.36;}.cls-3{opacity:0.28;}.cls-4{opacity:0.33;}.cls-5{opacity:0.34;}</style></defs><title>Grafic</title><path class="cls-1" d="M45.5,113.5s92.64-58.7,210.28-33.8q7.79,1.65,15.72,3.8c125,34,93,76,192,67a131.59,131.59,0,0,0,35-8.22c76.9-29.2,123.28-119.66,188-83.78,74,41,145,105,200,105s74-94,153-90,113,45,119,65-166-107-243-107-99-50-102,32,41,136-139,108-131-128-219-121-201,188-271,97-265-133-103-109c258.94,38.36,512-101,266,20C314.56,74.7,290.17,87.28,272.93,97c-111.48,62.52,76.17,3.15,183.57,13.55,124,12,257-71,271-67s89,94,4,112c-31.87,6.75-55.73-6.75-75.06-26.58C624.23,96,604.62,45.3,581.5,41.55c-37-6,313,75,348,75s133,67,150,62,35-108,42-138-14-24-91-13-186-49-104,28,151,84,199,84-334-129-378-109-112-58-180-1c-11.59,9.71-21.2,17-29.74,22.49-41.57,26.54-57.69,8.48-152.26,3.51-114-6-191,28-223,53s-113,5-113,24,120,32,196,31,113,28,162,28,78-16,136-16,96-102,197-49,128,49,170,53,136,15,164,12,77-79,84-105-116-47-145-53-233-52-270-18-181,11-310,12-162-37-218-4-134,38-149,57-74,71-35,79,35,16,85,14"/><rect class="cls-2" x="29.5" y="41.5" width="152" height="128"/><circle class="cls-3" cx="424.5" cy="94.5" r="49.5"/><circle class="cls-4" cx="688" cy="142" r="37"/><polygon class="cls-5" points="1035.08 68 974.51 68 944.23 120.45 974.51 172.91 1035.08 172.91 1065.37 120.45 1035.08 68"/></svg>